<svg width="30" height="24" viewBox="0 0 30 24" fill="none" xmlns="http://www.w3.org/2000/svg">
<path fill-rule="evenodd" clip-rule="evenodd" d="M28.8002 20.9999C28.8002 21.6608 28.2612 22.1999 27.5996 22.1999H2.40018C1.7387 22.1999 1.20018 21.6609 1.20018 20.9999V6.60016C1.20018 5.93808 1.73864 5.40016 2.40018 5.40016H7.46489H7.96233L8.31448 5.04747L9.76697 3.59204L9.79632 3.67996L11.1738 2.19052C11.407 1.93857 11.7182 1.80028 12.0504 1.80028H18.0503C18.3672 1.80028 18.6672 1.92335 18.9022 2.15536L21.7873 5.04753L22.1388 5.40022H22.6369H27.5996C28.2611 5.40022 28.8002 5.93809 28.8002 6.60022V20.9999ZM27.5997 4.20016H22.6369L19.7518 1.30805C19.7484 1.30458 19.7454 1.30224 19.7425 1.29871L19.7372 1.29404V1.29404C19.3037 0.865171 18.7084 0.600281 18.0504 0.600281H12.0504C11.3531 0.600281 10.7315 0.901461 10.2926 1.37608L10.2902 1.36907L7.46489 4.20021H2.40018C1.07483 4.20021 0.000244141 5.27486 0.000244141 6.60015V20.9999C0.000244141 22.3252 1.07483 23.3998 2.40018 23.3998H27.5997C28.9257 23.3998 30.0002 22.3252 30.0002 20.9999V6.60015C30.0002 5.2748 28.9257 4.20015 27.5997 4.20015V4.20016Z" fill="white"/>
<path fill-rule="evenodd" clip-rule="evenodd" d="M14.9999 19.7998C11.3608 19.7998 8.40007 16.8386 8.40007 13.1989C8.40007 9.56023 11.3608 6.60015 14.9999 6.60015C18.6391 6.60015 21.5998 9.56023 21.5998 13.1989C21.5998 16.8386 18.6391 19.7998 14.9999 19.7998ZM14.9999 5.40015C10.6922 5.40015 7.20007 8.89109 7.20007 13.1989C7.20007 17.5066 10.6922 20.9998 14.9999 20.9998C19.3076 20.9998 22.7998 17.5066 22.7998 13.1989C22.7998 8.89115 19.3077 5.40015 14.9999 5.40015Z" fill="white"/>
</svg>
