<svg width="100" height="22" viewBox="0 0 100 22" fill="none" xmlns="http://www.w3.org/2000/svg">
<path fill-rule="evenodd" clip-rule="evenodd" d="M39.3883 7.22303V17.0666H41.589V4.27474H38.5431L34.6716 13.7762L30.9145 4.27474H27.7446V17.0665H29.8127V7.22207H29.8837L33.8511 17.0666H35.4119L39.3173 7.22304L39.3883 7.22303ZM44.7687 3.99411C44.4138 3.99411 44.1043 4.11493 43.8499 4.35435C43.5946 4.59445 43.4651 4.89674 43.4651 5.2535C43.4651 5.60465 43.593 5.90143 43.846 6.13514C44.0973 6.36818 44.4078 6.48629 44.7688 6.48629C45.1298 6.48629 45.4414 6.36818 45.6957 6.13553C45.9517 5.90143 46.0815 5.60474 46.0815 5.2535C46.0815 4.90922 45.9552 4.61002 45.7063 4.36402C45.4576 4.11851 45.142 3.9941 44.7687 3.9941M45.8249 7.8994H43.6685V17.0666H45.8249V7.8994ZM52.2559 7.67846C51.2666 7.67846 50.3842 7.8906 49.6337 8.30879C48.8815 8.72795 48.2999 9.32635 47.9041 10.0873C47.5101 10.8463 47.3101 11.733 47.3101 12.7218C47.3101 13.588 47.504 14.3829 47.8874 15.0834C48.2709 15.7852 48.8138 16.3341 49.501 16.7149C50.1873 17.0952 50.9804 17.2879 51.8586 17.2879C52.8834 17.2879 53.7583 17.0831 54.4599 16.679L54.4882 16.6627V14.6871L54.3976 14.7533C54.0798 14.9848 53.7247 15.1695 53.3426 15.3027C52.9614 15.4357 52.614 15.5029 52.3093 15.5029C51.4631 15.5029 50.7838 15.2381 50.2908 14.7161C49.7967 14.1935 49.5461 13.4596 49.5461 12.536C49.5461 11.6067 49.8074 10.8539 50.3223 10.2984C50.8357 9.74464 51.5162 9.46372 52.3448 9.46372C53.0536 9.46372 53.7443 9.70372 54.3978 10.1777L54.4882 10.2434V8.16176L54.459 8.14532C54.2131 8.00766 53.8777 7.894 53.4614 7.80781C53.0467 7.72181 52.6412 7.67847 52.2559 7.67847M58.2741 9.48692V7.8993H56.1177V17.0666H58.2741V12.3772C58.2741 11.5798 58.4549 10.9247 58.8117 10.4299C59.1639 9.94099 59.6332 9.69325 60.2063 9.69325C60.4006 9.69325 60.6186 9.72527 60.8547 9.78863C61.0884 9.8516 61.2577 9.92 61.3576 9.99196L61.4482 10.0576V7.88363L61.4133 7.86863C61.2125 7.78331 60.9284 7.74026 60.5689 7.74026C60.027 7.74026 59.542 7.91439 59.1267 8.25721C58.7621 8.55854 58.4986 8.9717 58.2971 9.48691L58.2741 9.48692ZM66.4459 7.67846C64.9339 7.67846 63.7331 8.12141 62.8775 8.99502C62.0219 9.86873 61.5879 11.0778 61.5879 12.589C61.5879 14.025 62.0116 15.1789 62.8468 16.02C63.682 16.8614 64.8185 17.2876 66.2248 17.2876C67.6899 17.2876 68.867 16.8385 69.7227 15.9528C70.5782 15.068 71.0118 13.8704 71.0118 12.3945C71.0118 10.9367 70.6049 9.77355 69.8021 8.93805C68.999 8.10216 67.8697 7.67846 66.4459 7.67846M66.3486 15.5029C65.5564 15.5029 64.9315 15.2401 64.4914 14.7226C64.0483 14.2025 63.8243 13.4611 63.8243 12.5187C63.8243 11.5466 64.0486 10.7858 64.4919 10.2564C64.932 9.7306 65.5507 9.46371 66.3311 9.46371C67.0878 9.46371 67.6903 9.71861 68.1221 10.2217C68.5559 10.7275 68.776 11.4822 68.776 12.4656C68.776 13.4611 68.5689 14.2258 68.1606 14.7373C67.7552 15.245 67.1459 15.5029 66.3486 15.5029M75.5536 7.67846C74.5253 7.67846 73.6747 7.94148 73.025 8.46008C72.3712 8.98177 72.0396 9.66598 72.0396 10.4939C72.0396 10.9243 72.1112 11.3066 72.2521 11.6309C72.3938 11.9562 72.6131 12.2426 72.9044 12.483C73.1936 12.7214 73.6399 12.9712 74.2313 13.2253C74.7286 13.4299 75.0993 13.603 75.3349 13.7394C75.5651 13.8731 75.7285 14.0074 75.8208 14.1383C75.9105 14.2664 75.9559 14.4417 75.9559 14.658C75.9559 15.2739 75.4947 15.5736 74.5456 15.5736C74.1936 15.5736 73.7921 15.5001 73.3522 15.3551C72.9155 15.2124 72.5033 15.0034 72.1301 14.7355L72.0394 14.6705V16.7722L72.0727 16.7877C72.3816 16.9303 72.771 17.0505 73.23 17.1451C73.6882 17.2398 74.1044 17.288 74.466 17.288C75.5818 17.288 76.4804 17.0237 77.1361 16.502C77.7959 15.9768 78.1303 15.2764 78.1303 14.4198C78.1303 13.8019 77.9503 13.272 77.5955 12.8446C77.2431 12.4207 76.6314 12.0315 75.7783 11.6875C75.0987 11.4148 74.6633 11.1883 74.4836 11.0145C74.3104 10.8465 74.2225 10.609 74.2225 10.3083C74.2225 10.0417 74.3311 9.82811 74.5539 9.65514C74.7784 9.48131 75.0909 9.39289 75.4829 9.39289C75.8466 9.39289 76.2187 9.45035 76.5889 9.56295C76.9587 9.67555 77.2835 9.82636 77.5547 10.0108L77.6439 10.0718V8.07806L77.6096 8.06335C77.3595 7.95607 77.0296 7.86427 76.6289 7.78978C76.2301 7.71578 75.8683 7.67844 75.5536 7.67844M83.9311 7.67846C82.4194 7.67846 81.2187 8.12141 80.3626 8.99502C79.5071 9.86873 79.0733 11.0778 79.0733 12.589C79.0733 14.0244 79.4968 15.1789 80.332 16.02C81.1672 16.8614 82.3038 17.2876 83.71 17.2876C85.1754 17.2876 86.3522 16.8385 87.2079 15.9528C88.0635 15.068 88.497 13.8704 88.497 12.3945C88.497 10.9367 88.0902 9.77355 87.2876 8.93805C86.4846 8.10216 85.3551 7.67846 83.9311 7.67846M83.834 15.5029C83.0417 15.5029 82.417 15.2401 81.9767 14.7226C81.5338 14.2025 81.3094 13.4609 81.3094 12.5187C81.3094 11.5466 81.5338 10.7858 81.9769 10.2564C82.4175 9.73059 83.0362 9.46369 83.8162 9.46369C84.5732 9.46369 85.1758 9.71859 85.6074 10.2217C86.0412 10.7274 86.2613 11.4822 86.2613 12.4656C86.2613 13.4611 86.0543 14.2258 85.6461 14.7373C85.2407 15.245 84.631 15.5029 83.834 15.5029M99.9999 9.65795V7.89931H97.816V5.16529L97.7426 5.18792L95.6913 5.81554L95.6508 5.82782V7.8994H92.4132V6.74535C92.4132 6.20799 92.5333 5.79676 92.7701 5.52252C93.0053 5.25156 93.3417 5.11381 93.7707 5.11381C94.0791 5.11381 94.3984 5.18646 94.7197 5.32972L94.8003 5.3657V3.51361L94.7624 3.49968C94.4626 3.39192 94.0549 3.33765 93.5494 3.33765C92.9125 3.33765 92.3337 3.47627 91.8289 3.751C91.3238 4.02611 90.9266 4.41886 90.6483 4.91821C90.3709 5.41697 90.2302 5.99303 90.2302 6.63052V7.8993H88.7095V9.65794H90.2302V17.0668H92.4132V9.65794H95.6508V14.3661C95.6508 16.3052 96.5655 17.2878 98.3693 17.2878C98.6657 17.2878 98.9776 17.2531 99.2962 17.1851C99.6205 17.1152 99.8413 17.0455 99.9713 16.971L100 16.954V15.1791L99.9112 15.2378C99.7927 15.3167 99.6452 15.3813 99.4722 15.4293C99.2985 15.4781 99.1534 15.5026 99.041 15.5026C98.6185 15.5026 98.3058 15.3887 98.1119 15.164C97.9157 14.9373 97.8161 14.5408 97.8161 13.9861V9.65796L99.9999 9.65795Z" fill="white"/>
<path fill-rule="evenodd" clip-rule="evenodd" d="M10.1488 10.1488H0V0H10.1488V10.1488Z" fill="white"/>
<path fill-rule="evenodd" clip-rule="evenodd" d="M21.35 10.1488H11.2016V0H21.35V10.1488Z" fill="white"/>
<path fill-rule="evenodd" clip-rule="evenodd" d="M10.1483 21.3479H0V11.2092H10.1483V21.3479Z" fill="white"/>
<path fill-rule="evenodd" clip-rule="evenodd" d="M21.35 21.3479H11.2016V11.2092H21.35V21.3479Z" fill="white"/>
</svg>
