<svg width="30" height="26" viewBox="0 0 30 26" fill="none" xmlns="http://www.w3.org/2000/svg">
<path fill-rule="evenodd" clip-rule="evenodd" d="M28.2394 2.83615C27.8548 2.83615 27.5252 2.50651 27.5252 2.12193C27.5252 1.73735 27.8548 1.40771 28.2394 1.40771C28.624 1.40771 28.9536 1.73735 28.9536 2.12193C28.9536 2.56145 28.624 2.83615 28.2394 2.83615ZM27.2505 14.1538V15.7471H25.6572V14.1538H27.2505ZM20.9324 16.2416C20.1083 16.9558 18.2403 18.8787 18.1304 21.9554H11.8672C11.7573 18.8238 9.88935 16.9009 9.06524 16.2416L14.4494 5.74799V11.5167C14.4494 11.8464 14.6692 12.0661 14.9988 12.0661C15.3284 12.0661 15.5482 11.8464 15.5482 11.5167V5.74799L20.9324 16.2416ZM19.2292 23.0542C19.2842 23.0542 19.3391 23.1091 19.3391 23.1641V24.5376C19.3391 24.5925 19.2842 24.6474 19.2292 24.6474H10.5486C10.4937 24.6474 10.4388 24.5925 10.4388 24.5376V23.1641C10.4388 23.1091 10.4937 23.0542 10.5486 23.0542H11.3178H18.6249H19.2292ZM14.2296 1.35276H15.8229V2.94603H14.2296V1.35276ZM4.28545 14.1538V15.7471H2.74712V14.1538H4.28545ZM1.75819 2.83615C1.37361 2.83615 1.04397 2.50651 1.04397 2.12193C1.04397 1.73735 1.37361 1.40771 1.75819 1.40771C2.14277 1.40771 2.47241 1.73735 2.47241 2.12193C2.47241 2.56145 2.14277 2.83615 1.75819 2.83615ZM28.2394 0.308897C27.4153 0.308897 26.756 0.858297 26.5363 1.57253H16.8668V0.803367C16.8668 0.473727 16.647 0.253967 16.3174 0.253967H13.6253C13.2957 0.253967 13.0759 0.473727 13.0759 0.803367V1.57253H3.5163C3.29654 0.858307 2.58231 0.308897 1.81315 0.308897C0.824222 0.308897 0.00012207 1.133 0.00012207 2.12193C0.00012207 3.11086 0.824222 3.93496 1.81315 3.93496C2.63725 3.93496 3.29654 3.38556 3.5163 2.67133H9.99926C5.98862 4.48436 3.2416 8.44006 3.02184 13.055H2.19773C1.86809 13.055 1.64833 13.2748 1.64833 13.6044V16.2965C1.64833 16.6262 1.86809 16.8459 2.19773 16.8459H4.88981C5.21945 16.8459 5.43921 16.6262 5.43921 16.2965V13.6044C5.43921 13.2748 5.21945 13.055 4.88981 13.055H4.12065C4.39535 7.9456 8.13129 3.7152 13.1309 2.83615V3.44049C13.1309 3.77013 13.3506 3.98989 13.6803 3.98989H14.1198L7.91153 16.1317C7.80165 16.3515 7.85659 16.6811 8.07635 16.8459C8.07635 16.8459 10.6036 18.604 10.7684 21.9554H10.5487C9.88938 21.9554 9.33997 22.5048 9.33997 23.1641V24.5376C9.33997 25.1968 9.88937 25.7463 10.5487 25.7463H19.2292C19.8885 25.7463 20.4379 25.1969 20.4379 24.5376V23.1641C20.4379 22.5048 19.8885 21.9554 19.2292 21.9554C19.3941 18.604 21.8114 16.9009 21.9213 16.8459C22.1411 16.6811 22.251 16.4064 22.0861 16.1317L15.8779 4.04483H16.3174C16.647 4.04483 16.8668 3.82507 16.8668 3.49543V2.89109C21.8664 3.77014 25.6023 8.00054 25.877 13.11H25.1078C24.7782 13.11 24.5584 13.3297 24.5584 13.6594V16.2965C24.5584 16.6262 24.7782 16.8459 25.1078 16.8459H27.7999C28.1296 16.8459 28.3493 16.6262 28.3493 16.2965V13.6044C28.3493 13.2748 28.1296 13.055 27.7999 13.055H26.9758C26.7561 8.49499 24.009 4.53929 19.9984 2.67132H26.4814C26.7011 3.38554 27.4153 3.93495 28.1845 3.93495C29.1734 3.93495 29.9975 3.11085 29.9975 2.12192C30.0525 1.133 29.2284 0.308887 28.2394 0.308887L28.2394 0.308897Z" fill="white"/>
</svg>
