<svg width="16" height="12" viewBox="0 0 16 12" fill="none" xmlns="http://www.w3.org/2000/svg">
<path fill-rule="evenodd" clip-rule="evenodd" d="M15.0107 5.70459L1.19284 0.274821C0.941183 0.185681 0.702643 0.4347 0.799651 0.683737L1.93234 4.75751C2.00051 4.99869 2.21023 5.17171 2.45927 5.19008L12.0171 5.89841C12.08 5.90365 12.2163 5.92988 12.2163 5.99279C12.2163 6.06094 12.0852 6.08716 12.0223 6.09239L2.57994 6.65284C2.31779 6.66856 2.09498 6.85466 2.03733 7.11156L1.00998 11.5417C0.928725 11.7908 1.16991 12.0267 1.4137 11.935L15.016 6.2918C15.2912 6.18958 15.286 5.8016 15.0107 5.70459L15.0107 5.70459Z" fill="black"/>
</svg>
